HIERARCHY
ROOT Hips
{
 OFFSET 0.000000 0.000000 0.000000
 CHANNELS 6 Xposition Yposition Zposition Yrotation Xrotation Zrotation
 JOINT Chest
 {
  OFFSET 0.000000 9.585900 0.002600
  CHANNELS 3 Yrotation Xrotation Zrotation
  JOINT Chest2
  {
   OFFSET 0.000000 9.601200 -0.005300
   CHANNELS 3 Yrotation Xrotation Zrotation
   JOINT Chest3
   {
    OFFSET 0.000000 9.561800 0.000000
    CHANNELS 3 Yrotation Xrotation Zrotation
    JOINT Chest4
    {
     OFFSET 0.000000 9.552100 0.000000
     CHANNELS 3 Yrotation Xrotation Zrotation
     JOINT Neck
     {
      OFFSET 0.000000 14.453000 0.000000
      CHANNELS 3 Yrotation Xrotation Zrotation
      JOINT Head
      {
       OFFSET 0.000000 8.936500 -0.011300
       CHANNELS 3 Yrotation Xrotation Zrotation
       End Site
       {
        OFFSET 0.000000 17.073600 -0.006000
       }
      }
     }
     JOINT RightCollar
     {
      OFFSET -2.921100 9.558500 0.000000
      CHANNELS 3 Yrotation Xrotation Zrotation
      JOINT RightShoulder
      {
       OFFSET -13.519700 0.000000 0.000000
       CHANNELS 3 Yrotation Xrotation Zrotation
       JOINT RightElbow
       {
        OFFSET 0.000000 -29.696600 0.000000
        CHANNELS 3 Yrotation Xrotation Zrotation
        JOINT RightWrist
        {
         OFFSET 0.000000 -24.004700 0.000000
         CHANNELS 3 Yrotation Xrotation Zrotation
         End Site
         {
          OFFSET 0.000000 -17.728500 0.000000
         }
        }
       }
      }
     }
     JOINT LeftCollar
     {
      OFFSET 2.921100 9.558500 0.000000
      CHANNELS 3 Yrotation Xrotation Zrotation
      JOINT LeftShoulder
      {
       OFFSET 13.519700 0.000000 0.000000
       CHANNELS 3 Yrotation Xrotation Zrotation
       JOINT LeftElbow
       {
        OFFSET 0.000000 -29.696600 0.000000
        CHANNELS 3 Yrotation Xrotation Zrotation
        JOINT LeftWrist
        {
         OFFSET 0.000000 -24.004700 0.000000
         CHANNELS 3 Yrotation Xrotation Zrotation
         End Site
         {
          OFFSET 0.000000 -17.728500 0.000000
         }
        }
       }
      }
     }
    }
   }
  }
 }
 JOINT RightHip
 {
  OFFSET -7.771700 -0.012900 -0.001300
  CHANNELS 3 Yrotation Xrotation Zrotation
  JOINT RightKnee
  {
   OFFSET 0.000000 -40.869800 0.001200
   CHANNELS 3 Yrotation Xrotation Zrotation
   JOINT RightAnkle
   {
    OFFSET 0.000000 -39.717900 0.002100
    CHANNELS 3 Yrotation Xrotation Zrotation
    JOINT RightToe
    {
     OFFSET 0.000000 -4.965400 11.033500
     CHANNELS 3 Yrotation Xrotation Zrotation
     End Site
     {
      OFFSET 0.000000 -1.423100 5.872300
     }
    }
   }
  }
 }
 JOINT LeftHip
 {
  OFFSET 7.771700 -0.012900 -0.001300
  CHANNELS 3 Yrotation Xrotation Zrotation
  JOINT LeftKnee
  {
   OFFSET 0.000000 -40.869800 0.001200
   CHANNELS 3 Yrotation Xrotation Zrotation
   JOINT LeftAnkle
   {
    OFFSET 0.000000 -39.717900 0.002100
    CHANNELS 3 Yrotation Xrotation Zrotation
    JOINT LeftToe
    {
     OFFSET 0.000000 -4.965400 11.033500
     CHANNELS 3 Yrotation Xrotation Zrotation
     End Site
     {
      OFFSET 0.000000 -1.423100 5.872300
     }
    }
   }
  }
 }
}
MOTION
Frames: 9
Frame Time: 0.008333
0.000000 85.388000 0.000000 0.000000 -5.767877 0.000000 0.000000 11.653817 0.000000 0.000000 -5.885947 0.000000 0.000000 -0.000000 0.000000 0.000000 -0.000000 0.000000 0.000000 12.528835 0.000000 0.000000 0.711642 0.000000 0.000000 -0.000000 0.000000 0.000000 0.000000 -90.000000 0.000000 -2.309062 0.000000 0.000000 2.309062 0.000000 0.000000 -0.000000 0.000000 0.000000 -0.000000 90.000000 0.000000 -2.309062 0.000000 0.000000 2.309062 0.000000 0.000000 8.520406 0.000000 0.000000 1.905762 0.000000 -0.000000 -4.658285 0.000000 0.000000 -0.000000 0.000000 0.000000 8.520406 0.000000 0.000000 1.905762 0.000000 -0.000000 -4.658285 0.000000 0.000000 -0.000000 0.000000
-31.789416 62.167655 12.704706 177.206730 -54.803213 -1.081080 4.031161 27.219580 0.658974 0.596662 4.694410 0.089606 0.964165 7.426286 0.163662 3.018177 22.023291 0.894370 4.012719 19.876807 3.415622 6.295140 1.040137 5.000120 8.034810 4.586599 7.396080 4.675697 -25.724466 -21.260497 -85.553257 -38.964861 138.829085 7.696534 6.795654 46.479286 -9.107395 1.048562 -0.664966 -10.735150 -12.850629 20.402953 110.574044 -55.784432 -147.006720 10.787004 -0.261415 -35.495434 3.195225 -11.930438 -5.516496 -1.366121 60.772574 -5.147300 1.258380 -7.700117 10.418920 0.225273 -0.523594 0.106164 -4.390061 -9.140923 1.273452 25.842299 76.455113 26.439822 1.332627 -11.963178 -3.703464 0.209913 0.641875 0.104255
-31.789138 62.166908 12.704527 177.219655 -54.779866 -1.093033 4.045782 27.198528 0.667465 0.583901 4.690636 0.091364 0.984588 7.408435 0.161094 3.036609 22.006175 0.898337 3.986240 19.900902 3.436051 6.273855 0.997448 5.002152 7.990158 4.648173 7.423655 4.673988 -25.684043 -21.242383 -85.511753 -38.993286 138.764627 7.649146 6.776563 46.323000 -9.144212 1.092368 -0.652178 -10.699673 -12.810608 20.391677 110.550497 -55.803142 -146.992881 10.819356 -0.225794 -35.431630 3.188738 -11.954364 -5.517646 -1.351072 60.777296 -5.131132 1.255454 -7.704756 10.419219 0.228335 -0.521814 0.104252 -4.395641 -9.166271 1.282122 25.826829 76.458787 26.422283 1.339894 -11.962188 -3.710720 0.238029 0.642405 0.109969
-31.788701 62.165585 12.704701 177.218381 -54.749484 -1.094455 4.065008 27.167041 0.673009 0.589488 4.687292 0.093229 0.987068 7.387131 0.159510 3.055775 21.986857 0.901781 3.972955 19.904126 3.447006 6.234617 0.979555 5.023550 7.946067 4.719231 7.454593 4.670839 -25.639189 -21.226634 -85.481856 -39.027976 138.701690 7.594646 6.753019 46.152737 -9.168962 1.162073 -0.642060 -10.671177 -12.787988 20.386030 110.508319 -55.822916 -146.964409 10.841031 -0.199690 -35.392908 3.199514 -11.984233 -5.514213 -1.354617 60.779102 -5.130706 1.247845 -7.712109 10.423499 0.224914 -0.515211 0.102555 -4.395461 -9.199499 1.292756 25.819793 76.463722 26.408973 1.348992 -11.959546 -3.713271 0.238968 0.639723 0.115218
-31.788745 62.164408 12.704703 177.216164 -54.717952 -1.092377 4.073404 27.134040 0.672077 0.617975 4.661043 0.088152 0.973211 7.383456 0.165186 3.072647 21.966083 0.904644 3.959967 19.905294 3.455273 6.194025 0.968604 5.047813 7.908417 4.789474 7.484358 4.655071 -25.583269 -21.207993 -85.476626 -39.067211 138.673278 7.524142 6.739080 45.944862 -9.186110 1.241504 -0.630089 -10.642414 -12.767131 20.377326 110.456562 -55.844016 -146.923773 10.853859 -0.185765 -35.363413 3.204525 -12.014974 -5.515555 -1.343134 60.780646 -5.118209 1.239555 -7.722195 10.425021 0.226061 -0.506881 0.101286 -4.391392 -9.232761 1.305679 25.762123 76.470586 26.351848 1.324793 -11.956348 -3.710152 0.237264 0.635504 0.115166
-31.788369 62.163945 12.704169 177.212908 -54.690388 -1.092295 4.084087 27.103994 0.673999 0.623398 4.645525 0.089657 0.975917 7.366412 0.165342 3.084925 21.944526 0.907164 3.947456 19.849356 3.446159 6.154788 1.015822 5.088957 7.883455 4.849644 7.506680 4.641989 -25.550665 -21.196535 -85.438977 -39.107284 138.587089 7.446947 6.720077 45.708225 -9.177113 1.349673 -0.616922 -10.631228 -12.767918 20.367305 110.400604 -55.869120 -146.870399 10.867406 -0.176398 -35.321620 3.219207 -12.041871 -5.511740 -1.339448 60.783978 -5.109989 1.227653 -7.728017 10.429342 0.223846 -0.505232 0.100891 -4.387100 -9.261297 1.315804 25.759547 76.473431 26.349564 1.308967 -11.956924 -3.709414 0.241911 0.633614 0.116673
-31.788224 62.161220 12.705197 177.203432 -54.645071 -1.087059 4.108899 27.045449 0.683038 0.613209 4.640221 0.089647 0.976887 7.348354 0.165481 3.087330 21.951631 0.909885 3.936936 19.818594 3.446172 6.128003 1.012959 5.102097 7.865718 4.904526 7.516127 4.635530 -25.535691 -21.184339 -85.396250 -39.161308 138.488654 7.351497 6.693716 45.434279 -9.172241 1.409357 -0.610056 -10.597207 -12.743841 20.354874 110.342583 -55.902024 -146.811686 10.885419 -0.173421 -35.264037 3.228075 -12.090167 -5.511633 -1.329216 60.788285 -5.098696 1.223443 -7.735301 10.431177 0.224035 -0.501250 0.099795 -4.381380 -9.309432 1.327159 25.758595 76.479800 26.344132 1.304154 -11.963792 -3.705849 0.232309 0.637590 0.115792
-31.788280 62.161934 12.703676 177.206354 -54.624059 -1.091184 4.110314 27.021644 0.685293 0.613186 4.634018 0.089682 0.976915 7.339097 0.165494 3.094894 21.892299 0.909576 3.922713 19.832124 3.452809 6.105857 1.010633 5.112115 7.828219 5.033555 7.535191 4.575089 -25.428501 -21.123827 -85.416860 -39.256935 138.539699 7.229821 6.650859 45.095325 -9.173330 1.518355 -0.607554 -10.549904 -12.717656 20.338047 110.283108 -55.942896 -146.751536 10.907166 -0.172703 -35.188444 3.229864 -12.109673 -5.510825 -1.322999 60.790081 -5.090213 1.219855 -7.738701 10.432065 0.227567 -0.502750 0.099733 -4.383141 -9.331471 1.335166 25.756927 76.483154 26.338457 1.295500 -11.959434 -3.703250 0.223992 0.631630 0.114153
-31.789388 62.162628 12.701993 177.210889 -54.601957 -1.091662 4.107764 26.997578 0.682905 0.612791 4.627801 0.089518 0.976330 7.329839 0.165285 3.095782 21.825388 0.907238 3.911681 19.845335 3.458431 6.085728 1.008404 5.122057 7.809545 5.137777 7.551306 4.510181 -25.323244 -21.080058 -85.388403 -39.344462 138.528813 7.062662 6.578499 44.643068 -9.172422 1.633385 -0.607215 -10.491750 -12.684474 20.317814 110.232646 -55.991016 -146.690407 10.935489 -0.172977 -35.095913 3.232101 -12.131594 -5.521566 -1.313399 60.794775 -5.073358 1.228744 -7.741183 10.432431 0.224695 -0.507188 0.097243 -4.386053 -9.354697 1.337180 25.751281 76.485446 26.327381 1.291355 -11.954192 -3.700079 0.224240 0.626260 0.113211
